<mxfile host="app.diagrams.net" agent="Mozilla/5.0 (Windows NT 10.0; Win64; x64) AppleWebKit/537.36 (KHTML, like Gecko) Chrome/131.0.0.0 Safari/537.36" version="24.8.6">
  <diagram name="Page-1" id="E1osSsrYYy6lE5PMe1Nn">
    <mxGraphModel dx="2735" dy="2965" grid="1" gridSize="10" guides="1" tooltips="1" connect="1" arrows="1" fold="1" page="1" pageScale="1" pageWidth="850" pageHeight="1100" math="0" shadow="0">
      <root>
        <mxCell id="0" />
        <mxCell id="1" parent="0" />
        <mxCell id="l54C1VFSdSYi3TSU-mAV-88" value="1.Kích chọn nút &quot;quản lý người dùng&quot; trên thanh menu" style="text;html=1;align=center;verticalAlign=middle;whiteSpace=wrap;rounded=0;movable=0;resizable=0;rotatable=0;deletable=0;editable=0;locked=1;connectable=0;" vertex="1" parent="1">
          <mxGeometry x="1130" y="-849" width="270" height="30" as="geometry" />
        </mxCell>
        <mxCell id="l54C1VFSdSYi3TSU-mAV-49" value="&lt;span style=&quot;font-size: 16px;&quot;&gt;Admin&lt;/span&gt;" style="shape=umlLifeline;perimeter=lifelinePerimeter;whiteSpace=wrap;html=1;container=1;dropTarget=0;collapsible=0;recursiveResize=0;outlineConnect=0;portConstraint=eastwest;newEdgeStyle={&quot;curved&quot;:0,&quot;rounded&quot;:0};movable=0;resizable=0;rotatable=0;deletable=0;editable=0;locked=1;connectable=0;" vertex="1" parent="1">
          <mxGeometry x="1070" y="-940" width="98" height="2250" as="geometry" />
        </mxCell>
        <mxCell id="l54C1VFSdSYi3TSU-mAV-91" value="" style="html=1;points=[[0,0,0,0,5],[0,1,0,0,-5],[1,0,0,0,5],[1,1,0,0,-5]];perimeter=orthogonalPerimeter;outlineConnect=0;targetShapes=umlLifeline;portConstraint=eastwest;newEdgeStyle={&quot;curved&quot;:0,&quot;rounded&quot;:0};movable=0;resizable=0;rotatable=0;deletable=0;editable=0;locked=1;connectable=0;" vertex="1" parent="l54C1VFSdSYi3TSU-mAV-49">
          <mxGeometry x="44" y="100" width="10" height="40" as="geometry" />
        </mxCell>
        <mxCell id="l54C1VFSdSYi3TSU-mAV-94" value="" style="html=1;points=[[0,0,0,0,5],[0,1,0,0,-5],[1,0,0,0,5],[1,1,0,0,-5]];perimeter=orthogonalPerimeter;outlineConnect=0;targetShapes=umlLifeline;portConstraint=eastwest;newEdgeStyle={&quot;curved&quot;:0,&quot;rounded&quot;:0};movable=0;resizable=0;rotatable=0;deletable=0;editable=0;locked=1;connectable=0;" vertex="1" parent="l54C1VFSdSYi3TSU-mAV-49">
          <mxGeometry x="44" y="220" width="10" height="40" as="geometry" />
        </mxCell>
        <mxCell id="l54C1VFSdSYi3TSU-mAV-145" value="" style="html=1;points=[[0,0,0,0,5],[0,1,0,0,-5],[1,0,0,0,5],[1,1,0,0,-5]];perimeter=orthogonalPerimeter;outlineConnect=0;targetShapes=umlLifeline;portConstraint=eastwest;newEdgeStyle={&quot;curved&quot;:0,&quot;rounded&quot;:0};movable=0;resizable=0;rotatable=0;deletable=0;editable=0;locked=1;connectable=0;" vertex="1" parent="l54C1VFSdSYi3TSU-mAV-49">
          <mxGeometry x="44" y="1530" width="10" height="40" as="geometry" />
        </mxCell>
        <mxCell id="l54C1VFSdSYi3TSU-mAV-50" value="Hệ thống" style="shape=umlLifeline;perimeter=lifelinePerimeter;whiteSpace=wrap;html=1;container=1;dropTarget=0;collapsible=0;recursiveResize=0;outlineConnect=0;portConstraint=eastwest;newEdgeStyle={&quot;curved&quot;:0,&quot;rounded&quot;:0};movable=0;resizable=0;rotatable=0;deletable=0;editable=0;locked=1;connectable=0;" vertex="1" parent="1">
          <mxGeometry x="1362" y="-940" width="101" height="2250" as="geometry" />
        </mxCell>
        <mxCell id="l54C1VFSdSYi3TSU-mAV-89" value="" style="html=1;points=[[0,0,0,0,5],[0,1,0,0,-5],[1,0,0,0,5],[1,1,0,0,-5]];perimeter=orthogonalPerimeter;outlineConnect=0;targetShapes=umlLifeline;portConstraint=eastwest;newEdgeStyle={&quot;curved&quot;:0,&quot;rounded&quot;:0};movable=0;resizable=0;rotatable=0;deletable=0;editable=0;locked=1;connectable=0;" vertex="1" parent="l54C1VFSdSYi3TSU-mAV-50">
          <mxGeometry x="44" y="162" width="10" height="40" as="geometry" />
        </mxCell>
        <mxCell id="l54C1VFSdSYi3TSU-mAV-93" value="" style="html=1;points=[[0,0,0,0,5],[0,1,0,0,-5],[1,0,0,0,5],[1,1,0,0,-5]];perimeter=orthogonalPerimeter;outlineConnect=0;targetShapes=umlLifeline;portConstraint=eastwest;newEdgeStyle={&quot;curved&quot;:0,&quot;rounded&quot;:0};movable=0;resizable=0;rotatable=0;deletable=0;editable=0;locked=1;connectable=0;" vertex="1" parent="l54C1VFSdSYi3TSU-mAV-50">
          <mxGeometry x="45.5" y="230" width="10" height="40" as="geometry" />
        </mxCell>
        <mxCell id="l54C1VFSdSYi3TSU-mAV-95" value="" style="html=1;points=[[0,0,0,0,5],[0,1,0,0,-5],[1,0,0,0,5],[1,1,0,0,-5]];perimeter=orthogonalPerimeter;outlineConnect=0;targetShapes=umlLifeline;portConstraint=eastwest;newEdgeStyle={&quot;curved&quot;:0,&quot;rounded&quot;:0};movable=0;resizable=0;rotatable=0;deletable=0;editable=0;locked=1;connectable=0;" vertex="1" parent="l54C1VFSdSYi3TSU-mAV-50">
          <mxGeometry x="44" y="310" width="10" height="42" as="geometry" />
        </mxCell>
        <mxCell id="l54C1VFSdSYi3TSU-mAV-98" value="" style="html=1;points=[[0,0,0,0,5],[0,1,0,0,-5],[1,0,0,0,5],[1,1,0,0,-5]];perimeter=orthogonalPerimeter;outlineConnect=0;targetShapes=umlLifeline;portConstraint=eastwest;newEdgeStyle={&quot;curved&quot;:0,&quot;rounded&quot;:0};movable=0;resizable=0;rotatable=0;deletable=0;editable=0;locked=1;connectable=0;" vertex="1" parent="l54C1VFSdSYi3TSU-mAV-50">
          <mxGeometry x="46" y="400" width="10" height="40" as="geometry" />
        </mxCell>
        <mxCell id="l54C1VFSdSYi3TSU-mAV-90" value="2. Hiển thị danh sách người dùng" style="html=1;align=left;spacingLeft=2;endArrow=block;rounded=0;edgeStyle=orthogonalEdgeStyle;curved=0;rounded=0;movable=0;resizable=0;rotatable=0;deletable=0;editable=0;locked=1;connectable=0;" edge="1" target="l54C1VFSdSYi3TSU-mAV-89" parent="l54C1VFSdSYi3TSU-mAV-50" source="l54C1VFSdSYi3TSU-mAV-89">
          <mxGeometry relative="1" as="geometry">
            <mxPoint x="49" y="140" as="sourcePoint" />
            <Array as="points">
              <mxPoint x="49" y="143" />
              <mxPoint x="98" y="143" />
              <mxPoint x="98" y="182" />
            </Array>
          </mxGeometry>
        </mxCell>
        <mxCell id="l54C1VFSdSYi3TSU-mAV-168" value="" style="html=1;points=[[0,0,0,0,5],[0,1,0,0,-5],[1,0,0,0,5],[1,1,0,0,-5]];perimeter=orthogonalPerimeter;outlineConnect=0;targetShapes=umlLifeline;portConstraint=eastwest;newEdgeStyle={&quot;curved&quot;:0,&quot;rounded&quot;:0};movable=0;resizable=0;rotatable=0;deletable=0;editable=0;locked=1;connectable=0;" vertex="1" parent="l54C1VFSdSYi3TSU-mAV-50">
          <mxGeometry x="46" y="489" width="10" height="40" as="geometry" />
        </mxCell>
        <mxCell id="l54C1VFSdSYi3TSU-mAV-169" value="6. Hiển thị danh sách người dùng" style="html=1;align=left;spacingLeft=2;endArrow=block;rounded=0;edgeStyle=orthogonalEdgeStyle;curved=0;rounded=0;movable=0;resizable=0;rotatable=0;deletable=0;editable=0;locked=1;connectable=0;" edge="1" parent="l54C1VFSdSYi3TSU-mAV-50" source="l54C1VFSdSYi3TSU-mAV-168" target="l54C1VFSdSYi3TSU-mAV-168">
          <mxGeometry relative="1" as="geometry">
            <mxPoint x="51" y="467" as="sourcePoint" />
            <Array as="points">
              <mxPoint x="51" y="470" />
              <mxPoint x="100" y="470" />
              <mxPoint x="100" y="509" />
            </Array>
          </mxGeometry>
        </mxCell>
        <mxCell id="l54C1VFSdSYi3TSU-mAV-170" value="" style="html=1;points=[[0,0,0,0,5],[0,1,0,0,-5],[1,0,0,0,5],[1,1,0,0,-5]];perimeter=orthogonalPerimeter;outlineConnect=0;targetShapes=umlLifeline;portConstraint=eastwest;newEdgeStyle={&quot;curved&quot;:0,&quot;rounded&quot;:0};movable=0;resizable=0;rotatable=0;deletable=0;editable=0;locked=1;connectable=0;" vertex="1" parent="l54C1VFSdSYi3TSU-mAV-50">
          <mxGeometry x="46.960000000000036" y="989" width="10" height="40" as="geometry" />
        </mxCell>
        <mxCell id="l54C1VFSdSYi3TSU-mAV-171" value="12. Hiển thị danh sách hóa đơn" style="html=1;align=left;spacingLeft=2;endArrow=block;rounded=0;edgeStyle=orthogonalEdgeStyle;curved=0;rounded=0;movable=0;resizable=0;rotatable=0;deletable=0;editable=0;locked=1;connectable=0;" edge="1" parent="l54C1VFSdSYi3TSU-mAV-50" target="l54C1VFSdSYi3TSU-mAV-170" source="l54C1VFSdSYi3TSU-mAV-170">
          <mxGeometry relative="1" as="geometry">
            <mxPoint x="52.960000000000036" y="970" as="sourcePoint" />
            <Array as="points">
              <mxPoint x="52" y="970" />
              <mxPoint x="101" y="970" />
              <mxPoint x="101" y="1009" />
            </Array>
          </mxGeometry>
        </mxCell>
        <mxCell id="l54C1VFSdSYi3TSU-mAV-176" value="" style="html=1;points=[[0,0,0,0,5],[0,1,0,0,-5],[1,0,0,0,5],[1,1,0,0,-5]];perimeter=orthogonalPerimeter;outlineConnect=0;targetShapes=umlLifeline;portConstraint=eastwest;newEdgeStyle={&quot;curved&quot;:0,&quot;rounded&quot;:0};movable=0;resizable=0;rotatable=0;deletable=0;editable=0;locked=1;connectable=0;" vertex="1" parent="l54C1VFSdSYi3TSU-mAV-50">
          <mxGeometry x="46.96" y="590" width="10" height="39" as="geometry" />
        </mxCell>
        <mxCell id="l54C1VFSdSYi3TSU-mAV-177" value="" style="html=1;points=[[0,0,0,0,5],[0,1,0,0,-5],[1,0,0,0,5],[1,1,0,0,-5]];perimeter=orthogonalPerimeter;outlineConnect=0;targetShapes=umlLifeline;portConstraint=eastwest;newEdgeStyle={&quot;curved&quot;:0,&quot;rounded&quot;:0};movable=0;resizable=0;rotatable=0;deletable=0;editable=0;locked=1;connectable=0;" vertex="1" parent="l54C1VFSdSYi3TSU-mAV-50">
          <mxGeometry x="46.960000000000036" y="1060" width="10" height="39" as="geometry" />
        </mxCell>
        <mxCell id="l54C1VFSdSYi3TSU-mAV-178" value="" style="html=1;points=[[0,0,0,0,5],[0,1,0,0,-5],[1,0,0,0,5],[1,1,0,0,-5]];perimeter=orthogonalPerimeter;outlineConnect=0;targetShapes=umlLifeline;portConstraint=eastwest;newEdgeStyle={&quot;curved&quot;:0,&quot;rounded&quot;:0};movable=0;resizable=0;rotatable=0;deletable=0;editable=0;locked=1;connectable=0;" vertex="1" parent="l54C1VFSdSYi3TSU-mAV-50">
          <mxGeometry x="46.960000000000036" y="1530" width="10" height="39" as="geometry" />
        </mxCell>
        <mxCell id="l54C1VFSdSYi3TSU-mAV-179" value="" style="html=1;points=[[0,0,0,0,5],[0,1,0,0,-5],[1,0,0,0,5],[1,1,0,0,-5]];perimeter=orthogonalPerimeter;outlineConnect=0;targetShapes=umlLifeline;portConstraint=eastwest;newEdgeStyle={&quot;curved&quot;:0,&quot;rounded&quot;:0};movable=0;resizable=0;rotatable=0;deletable=0;editable=0;locked=1;connectable=0;" vertex="1" parent="l54C1VFSdSYi3TSU-mAV-50">
          <mxGeometry x="46.960000000000036" y="1960" width="10" height="40" as="geometry" />
        </mxCell>
        <mxCell id="l54C1VFSdSYi3TSU-mAV-180" value="24. Hiển thị danh sách môn học" style="html=1;align=left;spacingLeft=2;endArrow=block;rounded=0;edgeStyle=orthogonalEdgeStyle;curved=0;rounded=0;movable=0;resizable=0;rotatable=0;deletable=0;editable=0;locked=1;connectable=0;" edge="1" parent="l54C1VFSdSYi3TSU-mAV-50" target="l54C1VFSdSYi3TSU-mAV-179" source="l54C1VFSdSYi3TSU-mAV-179">
          <mxGeometry relative="1" as="geometry">
            <mxPoint x="58" y="1970" as="sourcePoint" />
            <Array as="points">
              <mxPoint x="58" y="1965" />
              <mxPoint x="58" y="1940" />
              <mxPoint x="128" y="1940" />
              <mxPoint x="128" y="1990" />
            </Array>
            <mxPoint x="54.00347826086954" y="1949" as="targetPoint" />
          </mxGeometry>
        </mxCell>
        <mxCell id="l54C1VFSdSYi3TSU-mAV-60" style="edgeStyle=orthogonalEdgeStyle;rounded=0;orthogonalLoop=1;jettySize=auto;html=1;curved=0;dashed=1;movable=0;resizable=0;rotatable=0;deletable=0;editable=0;locked=1;connectable=0;" edge="1" parent="1" source="l54C1VFSdSYi3TSU-mAV-97" target="l54C1VFSdSYi3TSU-mAV-98">
          <mxGeometry relative="1" as="geometry">
            <mxPoint x="1711.24" y="-536.742962962963" as="sourcePoint" />
            <mxPoint x="1419.9992592592596" y="-536.742962962963" as="targetPoint" />
            <Array as="points">
              <mxPoint x="1490" y="-520" />
              <mxPoint x="1490" y="-520" />
            </Array>
          </mxGeometry>
        </mxCell>
        <mxCell id="l54C1VFSdSYi3TSU-mAV-52" value="Cơ sơ dữ liệu" style="shape=umlLifeline;perimeter=lifelinePerimeter;whiteSpace=wrap;html=1;container=1;dropTarget=0;collapsible=0;recursiveResize=0;outlineConnect=0;portConstraint=eastwest;newEdgeStyle={&quot;curved&quot;:0,&quot;rounded&quot;:0};movable=0;resizable=0;rotatable=0;deletable=0;editable=0;locked=1;connectable=0;" vertex="1" parent="1">
          <mxGeometry x="1654" y="-936" width="100" height="2236" as="geometry" />
        </mxCell>
        <mxCell id="l54C1VFSdSYi3TSU-mAV-92" value="" style="html=1;points=[[0,0,0,0,5],[0,1,0,0,-5],[1,0,0,0,5],[1,1,0,0,-5]];perimeter=orthogonalPerimeter;outlineConnect=0;targetShapes=umlLifeline;portConstraint=eastwest;newEdgeStyle={&quot;curved&quot;:0,&quot;rounded&quot;:0};movable=0;resizable=0;rotatable=0;deletable=0;editable=0;locked=1;connectable=0;" vertex="1" parent="l54C1VFSdSYi3TSU-mAV-52">
          <mxGeometry x="45" y="291" width="10" height="49" as="geometry" />
        </mxCell>
        <mxCell id="l54C1VFSdSYi3TSU-mAV-97" value="" style="html=1;points=[[0,0,0,0,5],[0,1,0,0,-5],[1,0,0,0,5],[1,1,0,0,-5]];perimeter=orthogonalPerimeter;outlineConnect=0;targetShapes=umlLifeline;portConstraint=eastwest;newEdgeStyle={&quot;curved&quot;:0,&quot;rounded&quot;:0};movable=0;resizable=0;rotatable=0;deletable=0;editable=0;locked=1;connectable=0;" vertex="1" parent="l54C1VFSdSYi3TSU-mAV-52">
          <mxGeometry x="46" y="400" width="10" height="40" as="geometry" />
        </mxCell>
        <mxCell id="l54C1VFSdSYi3TSU-mAV-54" value="" style="endArrow=classic;html=1;rounded=0;movable=0;resizable=0;rotatable=0;deletable=0;editable=0;locked=1;connectable=0;" edge="1" parent="1" source="l54C1VFSdSYi3TSU-mAV-94" target="l54C1VFSdSYi3TSU-mAV-93">
          <mxGeometry width="50" height="50" relative="1" as="geometry">
            <mxPoint x="1119" y="-694.87" as="sourcePoint" />
            <mxPoint x="1411" y="-694.6099999999999" as="targetPoint" />
            <Array as="points">
              <mxPoint x="1250.24" y="-694.61" />
              <mxPoint x="1390.24" y="-694.61" />
            </Array>
          </mxGeometry>
        </mxCell>
        <mxCell id="l54C1VFSdSYi3TSU-mAV-56" value="3.Nhập thông tin người dùng vào &quot;ô tìm kiếm&quot;" style="text;html=1;align=center;verticalAlign=middle;whiteSpace=wrap;rounded=0;movable=0;resizable=0;rotatable=0;deletable=0;editable=0;locked=1;connectable=0;" vertex="1" parent="1">
          <mxGeometry x="1140" y="-730" width="250" height="30" as="geometry" />
        </mxCell>
        <mxCell id="l54C1VFSdSYi3TSU-mAV-57" value="" style="endArrow=classic;html=1;rounded=0;movable=0;resizable=0;rotatable=0;deletable=0;editable=0;locked=1;connectable=0;" edge="1" parent="1" source="l54C1VFSdSYi3TSU-mAV-95" target="l54C1VFSdSYi3TSU-mAV-92">
          <mxGeometry width="50" height="50" relative="1" as="geometry">
            <mxPoint x="1421.62" y="-622.37" as="sourcePoint" />
            <mxPoint x="1701.86" y="-622.7399999999999" as="targetPoint" />
            <Array as="points">
              <mxPoint x="1538.36" y="-622.74" />
            </Array>
          </mxGeometry>
        </mxCell>
        <mxCell id="l54C1VFSdSYi3TSU-mAV-58" value="4.Gửi câu lệnh truy vấn" style="text;whiteSpace=wrap;html=1;movable=0;resizable=0;rotatable=0;deletable=0;editable=0;locked=1;connectable=0;" vertex="1" parent="1">
          <mxGeometry x="1481.74" y="-652" width="130" height="30" as="geometry" />
        </mxCell>
        <mxCell id="l54C1VFSdSYi3TSU-mAV-61" value="5.Trả về danh sách người dùng" style="text;html=1;align=center;verticalAlign=middle;whiteSpace=wrap;rounded=0;movable=0;resizable=0;rotatable=0;deletable=0;editable=0;locked=1;connectable=0;" vertex="1" parent="1">
          <mxGeometry x="1450" y="-550" width="204" height="30" as="geometry" />
        </mxCell>
        <mxCell id="l54C1VFSdSYi3TSU-mAV-87" value="" style="endArrow=classic;html=1;rounded=0;movable=0;resizable=0;rotatable=0;deletable=0;editable=0;locked=1;connectable=0;" edge="1" parent="1" source="l54C1VFSdSYi3TSU-mAV-173" target="l54C1VFSdSYi3TSU-mAV-50">
          <mxGeometry width="50" height="50" relative="1" as="geometry">
            <mxPoint x="1120" y="-820" as="sourcePoint" />
            <mxPoint x="1170" y="-870" as="targetPoint" />
          </mxGeometry>
        </mxCell>
        <mxCell id="l54C1VFSdSYi3TSU-mAV-102" value="7.Kích chọn nút &quot;quản lý hóa đơn&quot; trên thanh menu" style="text;html=1;align=center;verticalAlign=middle;whiteSpace=wrap;rounded=0;movable=0;resizable=0;rotatable=0;deletable=0;editable=0;locked=1;connectable=0;" vertex="1" parent="1">
          <mxGeometry x="1130.5" y="-352" width="270" height="30" as="geometry" />
        </mxCell>
        <mxCell id="l54C1VFSdSYi3TSU-mAV-103" value="" style="html=1;points=[[0,0,0,0,5],[0,1,0,0,-5],[1,0,0,0,5],[1,1,0,0,-5]];perimeter=orthogonalPerimeter;outlineConnect=0;targetShapes=umlLifeline;portConstraint=eastwest;newEdgeStyle={&quot;curved&quot;:0,&quot;rounded&quot;:0};movable=0;resizable=0;rotatable=0;deletable=0;editable=0;locked=1;connectable=0;" vertex="1" parent="1">
          <mxGeometry x="1114.5" y="-343" width="10" height="40" as="geometry" />
        </mxCell>
        <mxCell id="l54C1VFSdSYi3TSU-mAV-104" value="" style="html=1;points=[[0,0,0,0,5],[0,1,0,0,-5],[1,0,0,0,5],[1,1,0,0,-5]];perimeter=orthogonalPerimeter;outlineConnect=0;targetShapes=umlLifeline;portConstraint=eastwest;newEdgeStyle={&quot;curved&quot;:0,&quot;rounded&quot;:0};movable=0;resizable=0;rotatable=0;deletable=0;editable=0;locked=1;connectable=0;" vertex="1" parent="1">
          <mxGeometry x="1114.5" y="-223" width="10" height="40" as="geometry" />
        </mxCell>
        <mxCell id="l54C1VFSdSYi3TSU-mAV-106" value="" style="html=1;points=[[0,0,0,0,5],[0,1,0,0,-5],[1,0,0,0,5],[1,1,0,0,-5]];perimeter=orthogonalPerimeter;outlineConnect=0;targetShapes=umlLifeline;portConstraint=eastwest;newEdgeStyle={&quot;curved&quot;:0,&quot;rounded&quot;:0};movable=0;resizable=0;rotatable=0;deletable=0;editable=0;locked=1;connectable=0;" vertex="1" parent="1">
          <mxGeometry x="1406.5" y="-281" width="10" height="40" as="geometry" />
        </mxCell>
        <mxCell id="l54C1VFSdSYi3TSU-mAV-107" value="8. Hiển thị danh sách hóa đơn" style="html=1;align=left;spacingLeft=2;endArrow=block;rounded=0;edgeStyle=orthogonalEdgeStyle;curved=0;rounded=0;exitX=0.492;exitY=0.126;exitDx=0;exitDy=0;exitPerimeter=0;movable=0;resizable=0;rotatable=0;deletable=0;editable=0;locked=1;connectable=0;" edge="1" parent="1" target="l54C1VFSdSYi3TSU-mAV-106">
          <mxGeometry relative="1" as="geometry">
            <mxPoint x="1412.5" y="-300" as="sourcePoint" />
            <Array as="points">
              <mxPoint x="1460.5" y="-300" />
              <mxPoint x="1460.5" y="-261" />
            </Array>
          </mxGeometry>
        </mxCell>
        <mxCell id="l54C1VFSdSYi3TSU-mAV-108" value="" style="html=1;points=[[0,0,0,0,5],[0,1,0,0,-5],[1,0,0,0,5],[1,1,0,0,-5]];perimeter=orthogonalPerimeter;outlineConnect=0;targetShapes=umlLifeline;portConstraint=eastwest;newEdgeStyle={&quot;curved&quot;:0,&quot;rounded&quot;:0};movable=0;resizable=0;rotatable=0;deletable=0;editable=0;locked=1;connectable=0;" vertex="1" parent="1">
          <mxGeometry x="1408" y="-213" width="10" height="40" as="geometry" />
        </mxCell>
        <mxCell id="l54C1VFSdSYi3TSU-mAV-109" value="" style="html=1;points=[[0,0,0,0,5],[0,1,0,0,-5],[1,0,0,0,5],[1,1,0,0,-5]];perimeter=orthogonalPerimeter;outlineConnect=0;targetShapes=umlLifeline;portConstraint=eastwest;newEdgeStyle={&quot;curved&quot;:0,&quot;rounded&quot;:0};movable=0;resizable=0;rotatable=0;deletable=0;editable=0;locked=1;connectable=0;" vertex="1" parent="1">
          <mxGeometry x="1406.5" y="-133" width="10" height="42" as="geometry" />
        </mxCell>
        <mxCell id="l54C1VFSdSYi3TSU-mAV-110" value="" style="html=1;points=[[0,0,0,0,5],[0,1,0,0,-5],[1,0,0,0,5],[1,1,0,0,-5]];perimeter=orthogonalPerimeter;outlineConnect=0;targetShapes=umlLifeline;portConstraint=eastwest;newEdgeStyle={&quot;curved&quot;:0,&quot;rounded&quot;:0};movable=0;resizable=0;rotatable=0;deletable=0;editable=0;locked=1;connectable=0;" vertex="1" parent="1">
          <mxGeometry x="1408.5" y="-43" width="10" height="40" as="geometry" />
        </mxCell>
        <mxCell id="l54C1VFSdSYi3TSU-mAV-112" style="edgeStyle=orthogonalEdgeStyle;rounded=0;orthogonalLoop=1;jettySize=auto;html=1;curved=0;dashed=1;movable=0;resizable=0;rotatable=0;deletable=0;editable=0;locked=1;connectable=0;" edge="1" parent="1" source="l54C1VFSdSYi3TSU-mAV-114" target="l54C1VFSdSYi3TSU-mAV-110">
          <mxGeometry relative="1" as="geometry">
            <mxPoint x="1711.74" y="-39.74296296296302" as="sourcePoint" />
            <mxPoint x="1420.4992592592596" y="-39.74296296296302" as="targetPoint" />
            <Array as="points">
              <mxPoint x="1490.5" y="-23" />
              <mxPoint x="1490.5" y="-23" />
            </Array>
          </mxGeometry>
        </mxCell>
        <mxCell id="l54C1VFSdSYi3TSU-mAV-113" value="" style="html=1;points=[[0,0,0,0,5],[0,1,0,0,-5],[1,0,0,0,5],[1,1,0,0,-5]];perimeter=orthogonalPerimeter;outlineConnect=0;targetShapes=umlLifeline;portConstraint=eastwest;newEdgeStyle={&quot;curved&quot;:0,&quot;rounded&quot;:0};movable=0;resizable=0;rotatable=0;deletable=0;editable=0;locked=1;connectable=0;" vertex="1" parent="1">
          <mxGeometry x="1699.5" y="-148" width="10" height="49" as="geometry" />
        </mxCell>
        <mxCell id="l54C1VFSdSYi3TSU-mAV-114" value="" style="html=1;points=[[0,0,0,0,5],[0,1,0,0,-5],[1,0,0,0,5],[1,1,0,0,-5]];perimeter=orthogonalPerimeter;outlineConnect=0;targetShapes=umlLifeline;portConstraint=eastwest;newEdgeStyle={&quot;curved&quot;:0,&quot;rounded&quot;:0};movable=0;resizable=0;rotatable=0;deletable=0;editable=0;locked=1;connectable=0;" vertex="1" parent="1">
          <mxGeometry x="1700.5" y="-39" width="10" height="40" as="geometry" />
        </mxCell>
        <mxCell id="l54C1VFSdSYi3TSU-mAV-115" value="" style="endArrow=classic;html=1;rounded=0;movable=0;resizable=0;rotatable=0;deletable=0;editable=0;locked=1;connectable=0;" edge="1" parent="1" source="l54C1VFSdSYi3TSU-mAV-104" target="l54C1VFSdSYi3TSU-mAV-108">
          <mxGeometry width="50" height="50" relative="1" as="geometry">
            <mxPoint x="1119.5" y="-197.87" as="sourcePoint" />
            <mxPoint x="1411.5" y="-197.6099999999999" as="targetPoint" />
            <Array as="points">
              <mxPoint x="1250.74" y="-197.61" />
              <mxPoint x="1390.74" y="-197.61" />
            </Array>
          </mxGeometry>
        </mxCell>
        <mxCell id="l54C1VFSdSYi3TSU-mAV-116" value="9.Nhập thông tin hóa đơn vào &quot;ô tìm kiếm&quot;" style="text;html=1;align=center;verticalAlign=middle;whiteSpace=wrap;rounded=0;movable=0;resizable=0;rotatable=0;deletable=0;editable=0;locked=1;connectable=0;" vertex="1" parent="1">
          <mxGeometry x="1140.5" y="-233" width="250" height="30" as="geometry" />
        </mxCell>
        <mxCell id="l54C1VFSdSYi3TSU-mAV-117" value="" style="endArrow=classic;html=1;rounded=0;movable=0;resizable=0;rotatable=0;deletable=0;editable=0;locked=1;connectable=0;" edge="1" parent="1" source="l54C1VFSdSYi3TSU-mAV-109" target="l54C1VFSdSYi3TSU-mAV-113">
          <mxGeometry width="50" height="50" relative="1" as="geometry">
            <mxPoint x="1422.12" y="-125.37" as="sourcePoint" />
            <mxPoint x="1702.36" y="-125.7399999999999" as="targetPoint" />
            <Array as="points">
              <mxPoint x="1538.86" y="-125.74000000000001" />
            </Array>
          </mxGeometry>
        </mxCell>
        <mxCell id="l54C1VFSdSYi3TSU-mAV-118" value="10.Gửi câu lệnh truy vấn" style="text;whiteSpace=wrap;html=1;movable=0;resizable=0;rotatable=0;deletable=0;editable=0;locked=1;connectable=0;" vertex="1" parent="1">
          <mxGeometry x="1482.24" y="-155" width="177.76" height="30" as="geometry" />
        </mxCell>
        <mxCell id="l54C1VFSdSYi3TSU-mAV-119" value="11.Trả về danh sách hóa đơn" style="text;html=1;align=center;verticalAlign=middle;whiteSpace=wrap;rounded=0;movable=0;resizable=0;rotatable=0;deletable=0;editable=0;locked=1;connectable=0;" vertex="1" parent="1">
          <mxGeometry x="1450.5" y="-53" width="204" height="30" as="geometry" />
        </mxCell>
        <mxCell id="l54C1VFSdSYi3TSU-mAV-121" value="" style="endArrow=classic;html=1;rounded=0;movable=0;resizable=0;rotatable=0;deletable=0;editable=0;locked=1;connectable=0;" edge="1" parent="1" source="l54C1VFSdSYi3TSU-mAV-103" target="l54C1VFSdSYi3TSU-mAV-176">
          <mxGeometry width="50" height="50" relative="1" as="geometry">
            <mxPoint x="1120.5" y="-323" as="sourcePoint" />
            <mxPoint x="1412.5" y="-323" as="targetPoint" />
          </mxGeometry>
        </mxCell>
        <mxCell id="l54C1VFSdSYi3TSU-mAV-123" value="13.Kích chọn nút &quot;quản lý khóa học&quot; trên thanh menu" style="text;html=1;align=center;verticalAlign=middle;whiteSpace=wrap;rounded=0;movable=0;resizable=0;rotatable=0;deletable=0;editable=0;locked=1;connectable=0;" vertex="1" parent="1">
          <mxGeometry x="1130.5" y="114" width="270" height="30" as="geometry" />
        </mxCell>
        <mxCell id="l54C1VFSdSYi3TSU-mAV-124" value="" style="html=1;points=[[0,0,0,0,5],[0,1,0,0,-5],[1,0,0,0,5],[1,1,0,0,-5]];perimeter=orthogonalPerimeter;outlineConnect=0;targetShapes=umlLifeline;portConstraint=eastwest;newEdgeStyle={&quot;curved&quot;:0,&quot;rounded&quot;:0};movable=0;resizable=0;rotatable=0;deletable=0;editable=0;locked=1;connectable=0;" vertex="1" parent="1">
          <mxGeometry x="1114.5" y="123" width="10" height="40" as="geometry" />
        </mxCell>
        <mxCell id="l54C1VFSdSYi3TSU-mAV-125" value="" style="html=1;points=[[0,0,0,0,5],[0,1,0,0,-5],[1,0,0,0,5],[1,1,0,0,-5]];perimeter=orthogonalPerimeter;outlineConnect=0;targetShapes=umlLifeline;portConstraint=eastwest;newEdgeStyle={&quot;curved&quot;:0,&quot;rounded&quot;:0};movable=0;resizable=0;rotatable=0;deletable=0;editable=0;locked=1;connectable=0;" vertex="1" parent="1">
          <mxGeometry x="1114.5" y="243" width="10" height="40" as="geometry" />
        </mxCell>
        <mxCell id="l54C1VFSdSYi3TSU-mAV-127" value="" style="html=1;points=[[0,0,0,0,5],[0,1,0,0,-5],[1,0,0,0,5],[1,1,0,0,-5]];perimeter=orthogonalPerimeter;outlineConnect=0;targetShapes=umlLifeline;portConstraint=eastwest;newEdgeStyle={&quot;curved&quot;:0,&quot;rounded&quot;:0};movable=0;resizable=0;rotatable=0;deletable=0;editable=0;locked=1;connectable=0;" vertex="1" parent="1">
          <mxGeometry x="1406.5" y="185" width="10" height="40" as="geometry" />
        </mxCell>
        <mxCell id="l54C1VFSdSYi3TSU-mAV-128" value="14. Hiển thị danh sách khóa học" style="html=1;align=left;spacingLeft=2;endArrow=block;rounded=0;edgeStyle=orthogonalEdgeStyle;curved=0;rounded=0;exitX=0.492;exitY=0.126;exitDx=0;exitDy=0;exitPerimeter=0;movable=0;resizable=0;rotatable=0;deletable=0;editable=0;locked=1;connectable=0;" edge="1" parent="1" target="l54C1VFSdSYi3TSU-mAV-127">
          <mxGeometry x="-0.0037" relative="1" as="geometry">
            <mxPoint x="1412.5" y="166" as="sourcePoint" />
            <Array as="points">
              <mxPoint x="1460.5" y="166" />
              <mxPoint x="1460.5" y="205" />
            </Array>
            <mxPoint as="offset" />
          </mxGeometry>
        </mxCell>
        <mxCell id="l54C1VFSdSYi3TSU-mAV-129" value="" style="html=1;points=[[0,0,0,0,5],[0,1,0,0,-5],[1,0,0,0,5],[1,1,0,0,-5]];perimeter=orthogonalPerimeter;outlineConnect=0;targetShapes=umlLifeline;portConstraint=eastwest;newEdgeStyle={&quot;curved&quot;:0,&quot;rounded&quot;:0};movable=0;resizable=0;rotatable=0;deletable=0;editable=0;locked=1;connectable=0;" vertex="1" parent="1">
          <mxGeometry x="1408" y="253" width="10" height="40" as="geometry" />
        </mxCell>
        <mxCell id="l54C1VFSdSYi3TSU-mAV-130" value="" style="html=1;points=[[0,0,0,0,5],[0,1,0,0,-5],[1,0,0,0,5],[1,1,0,0,-5]];perimeter=orthogonalPerimeter;outlineConnect=0;targetShapes=umlLifeline;portConstraint=eastwest;newEdgeStyle={&quot;curved&quot;:0,&quot;rounded&quot;:0};movable=0;resizable=0;rotatable=0;deletable=0;editable=0;locked=1;connectable=0;" vertex="1" parent="1">
          <mxGeometry x="1406.5" y="333" width="10" height="42" as="geometry" />
        </mxCell>
        <mxCell id="l54C1VFSdSYi3TSU-mAV-131" value="" style="html=1;points=[[0,0,0,0,5],[0,1,0,0,-5],[1,0,0,0,5],[1,1,0,0,-5]];perimeter=orthogonalPerimeter;outlineConnect=0;targetShapes=umlLifeline;portConstraint=eastwest;newEdgeStyle={&quot;curved&quot;:0,&quot;rounded&quot;:0};movable=0;resizable=0;rotatable=0;deletable=0;editable=0;locked=1;connectable=0;" vertex="1" parent="1">
          <mxGeometry x="1408.5" y="423" width="10" height="40" as="geometry" />
        </mxCell>
        <mxCell id="l54C1VFSdSYi3TSU-mAV-132" value="" style="html=1;points=[[0,0,0,0,5],[0,1,0,0,-5],[1,0,0,0,5],[1,1,0,0,-5]];perimeter=orthogonalPerimeter;outlineConnect=0;targetShapes=umlLifeline;portConstraint=eastwest;newEdgeStyle={&quot;curved&quot;:0,&quot;rounded&quot;:0};movable=0;resizable=0;rotatable=0;deletable=0;editable=0;locked=1;connectable=0;" vertex="1" parent="1">
          <mxGeometry x="1408.5" y="483" width="11.5" height="50" as="geometry" />
        </mxCell>
        <mxCell id="l54C1VFSdSYi3TSU-mAV-133" style="edgeStyle=orthogonalEdgeStyle;rounded=0;orthogonalLoop=1;jettySize=auto;html=1;curved=0;dashed=1;movable=0;resizable=0;rotatable=0;deletable=0;editable=0;locked=1;connectable=0;" edge="1" parent="1" source="l54C1VFSdSYi3TSU-mAV-135" target="l54C1VFSdSYi3TSU-mAV-131">
          <mxGeometry relative="1" as="geometry">
            <mxPoint x="1711.74" y="426.257037037037" as="sourcePoint" />
            <mxPoint x="1420.4992592592596" y="426.257037037037" as="targetPoint" />
            <Array as="points">
              <mxPoint x="1490.5" y="443" />
              <mxPoint x="1490.5" y="443" />
            </Array>
          </mxGeometry>
        </mxCell>
        <mxCell id="l54C1VFSdSYi3TSU-mAV-134" value="" style="html=1;points=[[0,0,0,0,5],[0,1,0,0,-5],[1,0,0,0,5],[1,1,0,0,-5]];perimeter=orthogonalPerimeter;outlineConnect=0;targetShapes=umlLifeline;portConstraint=eastwest;newEdgeStyle={&quot;curved&quot;:0,&quot;rounded&quot;:0};movable=0;resizable=0;rotatable=0;deletable=0;editable=0;locked=1;connectable=0;" vertex="1" parent="1">
          <mxGeometry x="1699.5" y="318" width="10" height="49" as="geometry" />
        </mxCell>
        <mxCell id="l54C1VFSdSYi3TSU-mAV-135" value="" style="html=1;points=[[0,0,0,0,5],[0,1,0,0,-5],[1,0,0,0,5],[1,1,0,0,-5]];perimeter=orthogonalPerimeter;outlineConnect=0;targetShapes=umlLifeline;portConstraint=eastwest;newEdgeStyle={&quot;curved&quot;:0,&quot;rounded&quot;:0};movable=0;resizable=0;rotatable=0;deletable=0;editable=0;locked=1;connectable=0;" vertex="1" parent="1">
          <mxGeometry x="1700.5" y="427" width="10" height="40" as="geometry" />
        </mxCell>
        <mxCell id="l54C1VFSdSYi3TSU-mAV-136" value="" style="endArrow=classic;html=1;rounded=0;movable=0;resizable=0;rotatable=0;deletable=0;editable=0;locked=1;connectable=0;" edge="1" parent="1" source="l54C1VFSdSYi3TSU-mAV-125" target="l54C1VFSdSYi3TSU-mAV-129">
          <mxGeometry width="50" height="50" relative="1" as="geometry">
            <mxPoint x="1119.5" y="268.13" as="sourcePoint" />
            <mxPoint x="1411.5" y="268.3900000000001" as="targetPoint" />
            <Array as="points">
              <mxPoint x="1250.74" y="268.39" />
              <mxPoint x="1390.74" y="268.39" />
            </Array>
          </mxGeometry>
        </mxCell>
        <mxCell id="l54C1VFSdSYi3TSU-mAV-137" value="15.Nhập thông tin khóa học vào &quot;ô tìm kiếm&quot;" style="text;html=1;align=center;verticalAlign=middle;whiteSpace=wrap;rounded=0;movable=0;resizable=0;rotatable=0;deletable=0;editable=0;locked=1;connectable=0;" vertex="1" parent="1">
          <mxGeometry x="1140.5" y="233" width="250" height="30" as="geometry" />
        </mxCell>
        <mxCell id="l54C1VFSdSYi3TSU-mAV-138" value="" style="endArrow=classic;html=1;rounded=0;movable=0;resizable=0;rotatable=0;deletable=0;editable=0;locked=1;connectable=0;" edge="1" parent="1" source="l54C1VFSdSYi3TSU-mAV-130" target="l54C1VFSdSYi3TSU-mAV-134">
          <mxGeometry width="50" height="50" relative="1" as="geometry">
            <mxPoint x="1422.12" y="340.63" as="sourcePoint" />
            <mxPoint x="1702.36" y="340.2600000000001" as="targetPoint" />
            <Array as="points">
              <mxPoint x="1538.86" y="340.26" />
            </Array>
          </mxGeometry>
        </mxCell>
        <mxCell id="l54C1VFSdSYi3TSU-mAV-139" value="16.Gửi câu lệnh truy vấn" style="text;whiteSpace=wrap;html=1;movable=0;resizable=0;rotatable=0;deletable=0;editable=0;locked=1;connectable=0;" vertex="1" parent="1">
          <mxGeometry x="1482.24" y="311" width="167.76" height="30" as="geometry" />
        </mxCell>
        <mxCell id="l54C1VFSdSYi3TSU-mAV-140" value="17.Trả về danh sách khóa học" style="text;html=1;align=center;verticalAlign=middle;whiteSpace=wrap;rounded=0;movable=0;resizable=0;rotatable=0;deletable=0;editable=0;locked=1;connectable=0;" vertex="1" parent="1">
          <mxGeometry x="1450.5" y="413" width="204" height="30" as="geometry" />
        </mxCell>
        <mxCell id="l54C1VFSdSYi3TSU-mAV-141" value="18.Hiển thị danh sách khóa học" style="text;html=1;align=center;verticalAlign=middle;whiteSpace=wrap;rounded=0;movable=0;resizable=0;rotatable=0;deletable=0;editable=0;locked=1;connectable=0;" vertex="1" parent="1">
          <mxGeometry x="1430" y="483" width="205" height="30" as="geometry" />
        </mxCell>
        <mxCell id="l54C1VFSdSYi3TSU-mAV-142" value="" style="endArrow=classic;html=1;rounded=0;movable=0;resizable=0;rotatable=0;deletable=0;editable=0;locked=1;connectable=0;" edge="1" parent="1" source="l54C1VFSdSYi3TSU-mAV-124" target="l54C1VFSdSYi3TSU-mAV-50">
          <mxGeometry width="50" height="50" relative="1" as="geometry">
            <mxPoint x="1120.5" y="143" as="sourcePoint" />
            <mxPoint x="1413" y="143" as="targetPoint" />
          </mxGeometry>
        </mxCell>
        <mxCell id="l54C1VFSdSYi3TSU-mAV-144" value="19.Kích chọn nút &quot;quản lý môn học&quot; trên thanh menu" style="text;html=1;align=center;verticalAlign=middle;whiteSpace=wrap;rounded=0;movable=0;resizable=0;rotatable=0;deletable=0;editable=0;locked=1;connectable=0;" vertex="1" parent="1">
          <mxGeometry x="1132.5" y="580" width="270" height="30" as="geometry" />
        </mxCell>
        <mxCell id="l54C1VFSdSYi3TSU-mAV-146" value="" style="html=1;points=[[0,0,0,0,5],[0,1,0,0,-5],[1,0,0,0,5],[1,1,0,0,-5]];perimeter=orthogonalPerimeter;outlineConnect=0;targetShapes=umlLifeline;portConstraint=eastwest;newEdgeStyle={&quot;curved&quot;:0,&quot;rounded&quot;:0};movable=0;resizable=0;rotatable=0;deletable=0;editable=0;locked=1;connectable=0;" vertex="1" parent="1">
          <mxGeometry x="1116.5" y="754" width="10" height="40" as="geometry" />
        </mxCell>
        <mxCell id="l54C1VFSdSYi3TSU-mAV-148" value="" style="html=1;points=[[0,0,0,0,5],[0,1,0,0,-5],[1,0,0,0,5],[1,1,0,0,-5]];perimeter=orthogonalPerimeter;outlineConnect=0;targetShapes=umlLifeline;portConstraint=eastwest;newEdgeStyle={&quot;curved&quot;:0,&quot;rounded&quot;:0};movable=0;resizable=0;rotatable=0;deletable=0;editable=0;locked=1;connectable=0;" vertex="1" parent="1">
          <mxGeometry x="1408.5" y="696" width="10" height="40" as="geometry" />
        </mxCell>
        <mxCell id="l54C1VFSdSYi3TSU-mAV-149" value="20. Hiển thị danh sách môn học" style="html=1;align=left;spacingLeft=2;endArrow=block;rounded=0;edgeStyle=orthogonalEdgeStyle;curved=0;rounded=0;exitX=0.492;exitY=0.126;exitDx=0;exitDy=0;exitPerimeter=0;movable=0;resizable=0;rotatable=0;deletable=0;editable=0;locked=1;connectable=0;" edge="1" parent="1" target="l54C1VFSdSYi3TSU-mAV-148">
          <mxGeometry relative="1" as="geometry">
            <mxPoint x="1414.5" y="677" as="sourcePoint" />
            <Array as="points">
              <mxPoint x="1462.5" y="677" />
              <mxPoint x="1462.5" y="716" />
            </Array>
          </mxGeometry>
        </mxCell>
        <mxCell id="l54C1VFSdSYi3TSU-mAV-150" value="" style="html=1;points=[[0,0,0,0,5],[0,1,0,0,-5],[1,0,0,0,5],[1,1,0,0,-5]];perimeter=orthogonalPerimeter;outlineConnect=0;targetShapes=umlLifeline;portConstraint=eastwest;newEdgeStyle={&quot;curved&quot;:0,&quot;rounded&quot;:0};movable=0;resizable=0;rotatable=0;deletable=0;editable=0;locked=1;connectable=0;" vertex="1" parent="1">
          <mxGeometry x="1410" y="764" width="10" height="40" as="geometry" />
        </mxCell>
        <mxCell id="l54C1VFSdSYi3TSU-mAV-151" value="" style="html=1;points=[[0,0,0,0,5],[0,1,0,0,-5],[1,0,0,0,5],[1,1,0,0,-5]];perimeter=orthogonalPerimeter;outlineConnect=0;targetShapes=umlLifeline;portConstraint=eastwest;newEdgeStyle={&quot;curved&quot;:0,&quot;rounded&quot;:0};movable=0;resizable=0;rotatable=0;deletable=0;editable=0;locked=1;connectable=0;" vertex="1" parent="1">
          <mxGeometry x="1408.5" y="844" width="10" height="42" as="geometry" />
        </mxCell>
        <mxCell id="l54C1VFSdSYi3TSU-mAV-152" value="" style="html=1;points=[[0,0,0,0,5],[0,1,0,0,-5],[1,0,0,0,5],[1,1,0,0,-5]];perimeter=orthogonalPerimeter;outlineConnect=0;targetShapes=umlLifeline;portConstraint=eastwest;newEdgeStyle={&quot;curved&quot;:0,&quot;rounded&quot;:0};movable=0;resizable=0;rotatable=0;deletable=0;editable=0;locked=1;connectable=0;" vertex="1" parent="1">
          <mxGeometry x="1410.5" y="934" width="10" height="40" as="geometry" />
        </mxCell>
        <mxCell id="l54C1VFSdSYi3TSU-mAV-154" style="edgeStyle=orthogonalEdgeStyle;rounded=0;orthogonalLoop=1;jettySize=auto;html=1;curved=0;dashed=1;movable=0;resizable=0;rotatable=0;deletable=0;editable=0;locked=1;connectable=0;" edge="1" parent="1" source="l54C1VFSdSYi3TSU-mAV-156" target="l54C1VFSdSYi3TSU-mAV-152">
          <mxGeometry relative="1" as="geometry">
            <mxPoint x="1713.74" y="937.257037037037" as="sourcePoint" />
            <mxPoint x="1422.4992592592596" y="937.257037037037" as="targetPoint" />
            <Array as="points">
              <mxPoint x="1492.5" y="954" />
              <mxPoint x="1492.5" y="954" />
            </Array>
          </mxGeometry>
        </mxCell>
        <mxCell id="l54C1VFSdSYi3TSU-mAV-155" value="" style="html=1;points=[[0,0,0,0,5],[0,1,0,0,-5],[1,0,0,0,5],[1,1,0,0,-5]];perimeter=orthogonalPerimeter;outlineConnect=0;targetShapes=umlLifeline;portConstraint=eastwest;newEdgeStyle={&quot;curved&quot;:0,&quot;rounded&quot;:0};movable=0;resizable=0;rotatable=0;deletable=0;editable=0;locked=1;connectable=0;" vertex="1" parent="1">
          <mxGeometry x="1701.5" y="829" width="10" height="49" as="geometry" />
        </mxCell>
        <mxCell id="l54C1VFSdSYi3TSU-mAV-156" value="" style="html=1;points=[[0,0,0,0,5],[0,1,0,0,-5],[1,0,0,0,5],[1,1,0,0,-5]];perimeter=orthogonalPerimeter;outlineConnect=0;targetShapes=umlLifeline;portConstraint=eastwest;newEdgeStyle={&quot;curved&quot;:0,&quot;rounded&quot;:0};movable=0;resizable=0;rotatable=0;deletable=0;editable=0;locked=1;connectable=0;" vertex="1" parent="1">
          <mxGeometry x="1702.5" y="938" width="10" height="40" as="geometry" />
        </mxCell>
        <mxCell id="l54C1VFSdSYi3TSU-mAV-157" value="" style="endArrow=classic;html=1;rounded=0;movable=0;resizable=0;rotatable=0;deletable=0;editable=0;locked=1;connectable=0;" edge="1" parent="1" source="l54C1VFSdSYi3TSU-mAV-146" target="l54C1VFSdSYi3TSU-mAV-150">
          <mxGeometry width="50" height="50" relative="1" as="geometry">
            <mxPoint x="1121.5" y="779.13" as="sourcePoint" />
            <mxPoint x="1413.5" y="779.3900000000001" as="targetPoint" />
            <Array as="points">
              <mxPoint x="1252.74" y="779.39" />
              <mxPoint x="1392.74" y="779.39" />
            </Array>
          </mxGeometry>
        </mxCell>
        <mxCell id="l54C1VFSdSYi3TSU-mAV-158" value="21.Nhập thông tin môn học vào &quot;ô tìm kiếm&quot;" style="text;html=1;align=center;verticalAlign=middle;whiteSpace=wrap;rounded=0;movable=0;resizable=0;rotatable=0;deletable=0;editable=0;locked=1;connectable=0;" vertex="1" parent="1">
          <mxGeometry x="1142.5" y="744" width="250" height="30" as="geometry" />
        </mxCell>
        <mxCell id="l54C1VFSdSYi3TSU-mAV-159" value="" style="endArrow=classic;html=1;rounded=0;movable=0;resizable=0;rotatable=0;deletable=0;editable=0;locked=1;connectable=0;" edge="1" parent="1" source="l54C1VFSdSYi3TSU-mAV-151" target="l54C1VFSdSYi3TSU-mAV-155">
          <mxGeometry width="50" height="50" relative="1" as="geometry">
            <mxPoint x="1424.12" y="851.6300000000001" as="sourcePoint" />
            <mxPoint x="1704.36" y="851.2600000000002" as="targetPoint" />
            <Array as="points">
              <mxPoint x="1540.86" y="851.26" />
            </Array>
          </mxGeometry>
        </mxCell>
        <mxCell id="l54C1VFSdSYi3TSU-mAV-160" value="22.Gửi câu lệnh truy vấn" style="text;whiteSpace=wrap;html=1;movable=0;resizable=0;rotatable=0;deletable=0;editable=0;locked=1;connectable=0;" vertex="1" parent="1">
          <mxGeometry x="1484.24" y="822" width="165.76" height="30" as="geometry" />
        </mxCell>
        <mxCell id="l54C1VFSdSYi3TSU-mAV-161" value="23.Trả về danh sách người dùng" style="text;html=1;align=center;verticalAlign=middle;whiteSpace=wrap;rounded=0;movable=0;resizable=0;rotatable=0;deletable=0;editable=0;locked=1;connectable=0;" vertex="1" parent="1">
          <mxGeometry x="1452.5" y="924" width="204" height="30" as="geometry" />
        </mxCell>
        <mxCell id="l54C1VFSdSYi3TSU-mAV-163" value="" style="endArrow=classic;html=1;rounded=0;movable=0;resizable=0;rotatable=0;deletable=0;editable=0;locked=1;connectable=0;" edge="1" parent="1">
          <mxGeometry width="50" height="50" relative="1" as="geometry">
            <mxPoint x="1126.5" y="609" as="sourcePoint" />
            <mxPoint x="1410" y="609" as="targetPoint" />
          </mxGeometry>
        </mxCell>
        <mxCell id="l54C1VFSdSYi3TSU-mAV-172" style="edgeStyle=orthogonalEdgeStyle;rounded=0;orthogonalLoop=1;jettySize=auto;html=1;curved=0;movable=0;resizable=0;rotatable=0;deletable=0;editable=0;locked=1;connectable=0;" edge="1" parent="1" source="l54C1VFSdSYi3TSU-mAV-132" target="l54C1VFSdSYi3TSU-mAV-132">
          <mxGeometry relative="1" as="geometry" />
        </mxCell>
        <mxCell id="l54C1VFSdSYi3TSU-mAV-174" value="" style="endArrow=classic;html=1;rounded=0;movable=0;resizable=0;rotatable=0;deletable=0;editable=0;locked=1;connectable=0;" edge="1" parent="1" source="l54C1VFSdSYi3TSU-mAV-91" target="l54C1VFSdSYi3TSU-mAV-173">
          <mxGeometry width="50" height="50" relative="1" as="geometry">
            <mxPoint x="1124" y="-820" as="sourcePoint" />
            <mxPoint x="1412" y="-820" as="targetPoint" />
          </mxGeometry>
        </mxCell>
        <mxCell id="l54C1VFSdSYi3TSU-mAV-173" value="" style="html=1;points=[[0,0,0,0,5],[0,1,0,0,-5],[1,0,0,0,5],[1,1,0,0,-5]];perimeter=orthogonalPerimeter;outlineConnect=0;targetShapes=umlLifeline;portConstraint=eastwest;newEdgeStyle={&quot;curved&quot;:0,&quot;rounded&quot;:0};movable=0;resizable=0;rotatable=0;deletable=0;editable=0;locked=1;connectable=0;" vertex="1" parent="1">
          <mxGeometry x="1408.96" y="-840" width="10" height="39" as="geometry" />
        </mxCell>
      </root>
    </mxGraphModel>
  </diagram>
</mxfile>
